<svg width="25" height="25" viewBox="0 0 25 25" fill="none" xmlns="http://www.w3.org/2000/svg">
<path d="M21.1201 9.25176C20.0701 4.63176 16.0401 2.55176 12.5001 2.55176C12.5001 2.55176 12.5001 2.55176 12.4901 2.55176C8.9601 2.55176 4.9201 4.62176 3.8701 9.24176C2.7001 14.4018 5.8601 18.7718 8.7201 21.5218C9.7801 22.5418 11.1401 23.0518 12.5001 23.0518C13.8601 23.0518 15.2201 22.5418 16.2701 21.5218C19.1301 18.7718 22.2901 14.4118 21.1201 9.25176ZM12.5001 14.2618C10.7601 14.2618 9.3501 12.8518 9.3501 11.1118C9.3501 9.37176 10.7601 7.96176 12.5001 7.96176C14.2401 7.96176 15.6501 9.37176 15.6501 11.1118C15.6501 12.8518 14.2401 14.2618 12.5001 14.2618Z" fill="#111111"/>
</svg>
